<mxfile host="app.diagrams.net" modified="2024-03-13T13:42:11.573Z" agent="Mozilla/5.0 (Macintosh; Intel Mac OS X 10_15_7) AppleWebKit/605.1.15 (KHTML, like Gecko) Version/17.1 Safari/605.1.15" version="24.0.5" etag="VO5v_91vn1qW_g3KCTif" type="github">
  <diagram name="PÃ¡gina-1" id="_W1RSWlzIV-2HfZYXVWm">
    <mxGraphModel>
      <root>
        <mxCell id="0" />
        <mxCell id="1" parent="0" />
      </root>
    </mxGraphModel>
  </diagram>
</mxfile>
